<svg width="242" height="214" viewBox="0 0 242 214" fill="none" xmlns="http://www.w3.org/2000/svg">
<path d="M97.0619 205.046C26.2112 205.046 7.28106 131.189 15.8379 82.7976C16.2103 80.6914 18.9711 80.0847 20.1741 81.8532C23.8993 87.3285 27.2143 95.2371 32.7068 94.5506C40.9622 93.5185 46.6815 20.6734 95.6086 0.176634C97.1614 -0.473769 98.7859 0.760275 98.6154 2.43478C96.196 26.1722 110.448 60.1556 135.698 60.1556C150.172 60.1556 160.076 48.6037 165.025 37.0023C166.528 33.4782 171.677 33.9224 172.539 37.6556C181.369 75.8997 204.975 205.046 97.0619 205.046V205.046Z" fill="#FF8F1F"/>
<path d="M72.224 133.828C73.8901 132.428 76.4195 133.389 76.7978 135.532C77.6829 140.547 80.5935 149.165 90.1409 149.165C101.626 149.165 109.42 117.562 111.464 108.268C111.8 106.739 113.29 105.701 114.824 106.013C143.526 111.848 157.481 205.046 94.3746 205.046C48.4341 205.046 58.8418 145.07 72.224 133.828ZM150.651 32.8988C151.662 24.9873 137.22 46.6261 137.22 46.6261C137.22 46.6261 148.23 51.8268 150.651 32.8988ZM5.12916 150.888C5.43357 147.52 1.10077 138.502 0.333641 142.072C-1.50252 150.615 4.82474 154.256 5.12916 150.888Z" fill="#FFB636"/>
<path d="M120.687 141.289C119.611 136.8 115.751 147.226 116.236 151.473C116.721 155.719 123.261 152.028 120.687 141.289Z" fill="#FFD469"/>
<g filter="url(#filter0_d)">
<path d="M185.139 205.046C141.24 205.046 129.511 159.284 134.813 129.301C135.044 127.996 136.754 127.62 137.5 128.716C139.808 132.109 141.862 137.009 145.265 136.583C150.38 135.944 153.924 90.8092 184.239 78.1094C185.201 77.7065 186.208 78.4711 186.102 79.5086C184.603 94.2162 193.433 115.272 209.078 115.272C218.046 115.272 224.183 108.115 227.249 100.927C228.18 98.743 231.371 99.0183 231.905 101.331C237.376 125.027 252.002 205.046 185.139 205.046V205.046Z" fill="#FF8F1F"/>
<path d="M169.75 160.92C170.782 160.052 172.349 160.647 172.584 161.975C173.132 165.082 174.936 170.422 180.851 170.422C187.967 170.422 192.796 150.841 194.063 145.083C194.271 144.135 195.194 143.492 196.145 143.685C213.928 147.301 222.575 205.046 183.474 205.046C155.01 205.046 161.458 167.885 169.75 160.92ZM218.343 98.384C218.97 93.4821 210.021 106.889 210.021 106.889C210.021 106.889 216.843 110.112 218.343 98.384ZM128.178 171.49C128.367 169.403 125.682 163.816 125.207 166.028C124.069 171.32 127.989 173.577 128.178 171.49Z" fill="#FFB636"/>
<path d="M199.777 165.542C199.111 162.761 196.719 169.221 197.02 171.852C197.32 174.483 201.373 172.196 199.777 165.542Z" fill="#FFD469"/>
</g>
<defs>
<filter id="filter0_d" x="121" y="78" width="120.147" height="135.046" filterUnits="userSpaceOnUse" color-interpolation-filters="sRGB">
<feFlood flood-opacity="0" result="BackgroundImageFix"/>
<feColorMatrix in="SourceAlpha" type="matrix" values="0 0 0 0 0 0 0 0 0 0 0 0 0 0 0 0 0 0 127 0"/>
<feOffset dy="4"/>
<feGaussianBlur stdDeviation="2"/>
<feColorMatrix type="matrix" values="0 0 0 0 0 0 0 0 0 0 0 0 0 0 0 0 0 0 0.25 0"/>
<feBlend mode="normal" in2="BackgroundImageFix" result="effect1_dropShadow"/>
<feBlend mode="normal" in="SourceGraphic" in2="effect1_dropShadow" result="shape"/>
</filter>
</defs>
</svg>
